<?xml version="1.0" encoding="UTF-8" standalone="no"?>
<svg xmlns="http://www.w3.org/2000/svg" version="1.1" viewBox="0 0 800 220">
<rect width="800" height="220" fill="#020617"/>
<svg viewBox="360.00 -10.00 700.00 790.00" x="10" y="10" width="200" height="200">
<g stroke-width="2.00" fill="none" stroke-linecap="butt">
<path stroke="#84e0ee" vector-effect="non-scaling-stroke" d="
  M 703.26 0.00
  L 385.40 186.93
  A 2.55 2.52 75.0 0 0 384.15 189.12
  L 384.15 567.74
  A 2.21 2.21 0.0 0 0 385.18 569.61
  Q 491.59 636.20 556.01 676.98
  Q 562.32 680.97 568.42 684.84
  Q 632.83 725.69 697.09 766.19
  Q 699.11 767.45 701.37 768.00"
/>
<path stroke="#84e0ee" vector-effect="non-scaling-stroke" d="
  M 704.78 0.00
  L 1022.97 186.92
  A 2.31 2.31 0.0 0 1 1024.11 188.91
  L 1024.11 567.56
  A 2.32 2.31 -16.0 0 1 1023.02 569.52
  L 707.75 768.00"
/>
<path stroke="#107385" vector-effect="non-scaling-stroke" d="
  M 704.07 746.09
  Q 704.68 746.09 704.99 745.90
  Q 784.69 697.73 866.96 648.20
  Q 883.43 638.29 900.26 628.20
  Q 908.56 623.23 978.04 581.72
  C 988.41 575.53 998.10 569.28 1009.19 563.14
  A 2.81 2.79 -14.5 0 0 1010.64 560.69
  L 1010.64 196.80
  A 2.03 2.03 0.0 0 0 1009.64 195.05
  L 704.28 15.69
  A 0.16 0.07 -9.1 0 0 704.17 15.66
  Q 704.16 15.66 704.11 15.66
  Q 704.06 15.66 704.05 15.66
  A 0.16 0.07 9.1 0 0 703.94 15.69
  L 398.56 195.02
  A 2.03 2.03 0.0 0 0 397.56 196.77
  L 397.52 560.66
  A 2.81 2.79 14.5 0 0 398.97 563.11
  C 410.06 569.25 419.75 575.50 430.11 581.69
  Q 499.59 623.21 507.89 628.18
  Q 524.72 638.27 541.19 648.18
  Q 623.45 697.72 703.15 745.90
  Q 703.46 746.09 704.07 746.09"
/>
<path stroke="#283841" vector-effect="non-scaling-stroke" d="
  M 420.00 209.58
  Q 419.23 214.97 419.25 220.50
  Q 419.51 278.18 419.36 340.75
  Q 419.33 351.34 419.30 419.25
  Q 419.28 464.88 419.44 539.50
  C 419.46 547.54 424.86 547.81 429.88 551.72
  C 437.32 557.53 448.96 563.09 456.83 567.88
  Q 474.76 578.79 484.05 584.16
  C 499.22 592.93 512.64 601.53 528.77 610.63
  C 532.66 612.82 537.85 616.25 541.40 618.58
  Q 543.42 619.89 564.07 631.62
  C 570.83 635.45 576.46 639.38 583.02 643.12
  Q 588.64 646.32 597.34 651.56
  C 619.12 664.66 637.99 675.60 656.96 687.14
  Q 680.40 701.41 698.74 711.74
  Q 701.18 713.11 703.83 713.76
  A 2.48 2.45 -46.9 0 0 705.12 713.71
  Q 707.35 712.99 708.23 712.49
  Q 721.26 705.02 751.19 687.44
  C 762.24 680.95 773.67 673.47 784.96 667.22
  C 798.26 659.86 817.73 647.14 827.75 641.63
  Q 831.67 639.47 839.60 634.66
  C 850.88 627.81 855.58 624.88 869.22 617.16
  Q 876.46 613.05 883.99 608.29
  C 895.90 600.77 905.35 595.93 916.94 588.59
  Q 924.14 584.03 937.45 576.44
  C 945.78 571.70 953.06 566.61 961.36 562.28
  C 969.05 558.27 974.84 554.30 984.97 547.73
  C 987.53 546.07 988.38 544.70 988.67 541.93
  Q 988.98 538.95 988.93 533.78
  Q 988.63 502.09 988.63 497.28
  Q 988.66 288.45 988.65 248.51
  C 988.64 238.68 988.94 229.11 988.83 218.50
  C 988.78 213.90 988.68 208.64 985.33 206.41
  C 982.45 204.49 978.70 201.63 975.99 200.11
  Q 951.37 186.29 937.12 177.61
  Q 922.74 168.85 914.91 164.57
  C 906.77 160.13 899.79 155.17 890.76 150.07
  C 877.31 142.48 859.90 131.59 849.83 125.96
  Q 828.74 114.18 823.06 110.34
  C 817.49 106.57 810.25 102.92 804.63 99.41
  Q 798.85 95.79 790.79 91.27
  C 777.11 83.60 767.24 77.10 753.20 69.39
  Q 748.05 66.56 737.31 60.02
  Q 729.74 55.40 711.47 44.28
  Q 710.14 43.47 705.06 41.44
  A 2.36 2.35 -38.4 0 0 703.82 41.30
  Q 702.76 41.49 700.54 42.54
  C 695.77 44.82 690.24 48.72 685.94 51.21
  Q 668.80 61.12 663.84 63.94
  Q 650.04 71.80 641.87 76.89
  C 629.42 84.65 617.03 91.20 604.37 98.94
  C 598.24 102.70 584.15 111.27 574.45 116.61
  C 563.20 122.81 554.10 128.87 542.26 135.56
  Q 530.31 142.30 521.18 148.04
  C 510.16 154.97 499.56 160.22 488.26 167.49
  C 482.09 171.45 477.06 174.10 468.78 178.78
  Q 462.21 182.49 454.37 187.52
  Q 444.91 193.59 438.38 196.64
  C 432.35 199.46 426.08 204.49 421.51 207.28
  A 3.26 3.22 78.6 0 0 420.00 209.58"
/>
<path stroke="#283841" vector-effect="non-scaling-stroke" d="
  M 433.81 216.90
  L 433.81 536.32
  A 2.69 2.68 -74.7 0 0 435.12 538.63
  L 703.15 698.02
  A 1.98 1.97 44.6 0 0 705.16 698.01
  Q 727.28 684.75 736.39 679.15
  Q 740.76 676.47 757.74 666.92
  Q 760.72 665.25 764.21 662.95
  C 767.74 660.63 771.48 658.99 774.93 656.52
  Q 777.51 654.66 779.04 653.77
  Q 804.44 639.03 828.35 624.60
  Q 833.37 621.57 839.35 618.18
  C 848.33 613.07 856.96 607.63 866.71 601.91
  Q 880.61 593.76 896.93 583.74
  C 900.20 581.73 903.90 579.93 906.54 578.29
  C 921.70 568.83 936.42 560.60 953.49 550.21
  Q 962.18 544.91 973.10 539.12
  A 2.77 2.73 76.3 0 0 974.56 536.68
  L 974.56 217.19
  A 1.13 1.11 -57.0 0 0 974.47 216.75
  Q 973.78 215.18 971.70 214.14
  Q 963.53 210.07 953.46 203.72
  C 938.64 194.38 923.97 186.45 908.69 177.21
  C 894.24 168.48 881.22 161.26 869.51 154.00
  C 859.88 148.02 851.98 143.91 840.54 136.99
  Q 832.39 132.06 818.85 124.17
  C 781.01 102.12 743.30 79.50 705.38 57.64
  A 2.24 2.22 46.2 0 0 703.24 57.59
  Q 699.69 59.43 697.64 60.64
  Q 669.95 76.86 567.16 137.38
  Q 523.02 163.37 519.48 165.53
  Q 512.48 169.79 511.59 170.31
  C 496.74 178.92 486.67 185.39 473.09 193.10
  C 462.02 199.39 457.59 202.08 448.80 207.55
  Q 442.45 211.50 434.94 215.10
  A 2.01 2.00 -13.1 0 0 433.81 216.90"
/>
<path stroke="#107385" vector-effect="non-scaling-stroke" d="
  M 704.17 295.04
  Q 713.34 295.04 731.00 294.50
  C 761.45 293.56 792.00 291.17 819.09 288.69
  C 850.30 285.84 884.64 283.34 913.28 280.76
  Q 919.46 280.21 921.60 280.98
  C 929.29 283.75 931.51 292.96 926.00 298.62
  Q 924.19 300.48 916.61 302.77
  C 890.72 310.58 870.51 315.69 843.65 323.64
  Q 827.21 328.51 811.61 332.62
  Q 805.31 334.28 802.55 335.24
  C 794.97 337.87 786.51 339.59 780.39 342.95
  C 765.57 351.11 757.98 365.81 756.88 382.47
  A 0.81 0.81 0.0 0 0 757.69 383.33
  L 769.75 383.33
  A 0.97 0.97 0.0 0 0 770.72 382.40
  C 771.17 369.43 778.98 356.71 791.73 352.69
  Q 802.49 349.29 815.69 345.74
  C 829.74 341.96 846.73 336.66 861.59 332.59
  C 883.01 326.72 903.53 320.56 924.60 314.58
  C 940.55 310.06 947.93 290.91 938.09 277.08
  C 929.52 265.03 919.42 266.60 904.19 267.91
  Q 830.56 274.25 823.00 274.92
  Q 806.65 276.38 758.24 279.68
  Q 732.78 281.41 704.75 281.80
  Q 704.46 281.80 704.17 281.80
  Q 703.88 281.80 703.59 281.80
  Q 675.56 281.40 650.10 279.67
  Q 601.69 276.35 585.34 274.89
  Q 577.78 274.22 504.15 267.86
  C 488.92 266.54 478.82 264.97 470.25 277.02
  C 460.41 290.84 467.78 310.00 483.73 314.52
  C 504.80 320.51 525.32 326.67 546.73 332.55
  C 561.59 336.62 578.58 341.93 592.63 345.71
  Q 605.83 349.26 616.59 352.67
  C 629.34 356.69 637.14 369.41 637.59 382.38
  A 0.97 0.97 0.0 0 0 638.56 383.31
  L 650.62 383.32
  A 0.81 0.81 0.0 0 0 651.43 382.46
  C 650.33 365.80 642.75 351.09 627.93 342.93
  C 621.81 339.57 613.35 337.85 605.77 335.21
  Q 603.01 334.25 596.71 332.59
  Q 581.12 328.48 564.68 323.60
  C 537.82 315.64 517.61 310.53 491.72 302.71
  Q 484.14 300.42 482.33 298.56
  C 476.82 292.90 479.05 283.69 486.74 280.92
  Q 488.88 280.15 495.06 280.70
  C 523.70 283.29 558.04 285.80 589.25 288.66
  C 616.34 291.15 646.88 293.54 677.33 294.49
  Q 694.99 295.04 704.17 295.04"
/>
<path stroke="#107385" vector-effect="non-scaling-stroke" d="
  M 732.21 399.07
  C 732.87 398.51 738.46 394.61 740.80 394.61
  Q 800.87 394.38 838.80 394.57
  A 3.37 3.35 -69.9 0 0 841.41 393.35
  Q 853.57 378.57 864.83 365.77
  Q 866.13 364.29 868.03 364.28
  Q 882.77 364.18 907.29 364.27
  A 1.01 1.00 -7.0 0 1 908.27 365.03
  C 910.94 375.36 921.36 380.36 931.26 376.70
  C 943.19 372.30 945.64 356.22 936.62 347.86
  C 931.67 343.28 925.18 342.31 919.13 344.38
  Q 910.99 347.17 908.12 356.24
  A 1.41 1.40 8.7 0 1 906.78 357.22
  L 863.69 357.24
  A 2.64 2.63 19.8 0 0 861.66 358.19
  L 838.29 386.15
  A 3.67 3.65 -70.0 0 1 835.48 387.47
  L 739.33 387.51
  A 7.04 7.01 -60.1 0 0 735.77 388.48
  L 729.35 392.25
  A 1.87 1.87 0.0 0 0 728.62 394.69
  L 730.60 398.73
  A 1.05 1.04 56.8 0 0 732.21 399.07"
/>
<path stroke="#107385" vector-effect="non-scaling-stroke" d="
  M 676.12 399.06
  A 1.05 1.04 -56.9 0 0 677.73 398.72
  L 679.70 394.68
  A 1.87 1.87 0.0 0 0 678.97 392.24
  L 672.55 388.47
  A 7.04 7.01 60.1 0 0 668.99 387.50
  L 572.82 387.50
  A 3.67 3.65 70.0 0 1 570.01 386.18
  L 546.62 358.22
  A 2.65 2.63 -19.8 0 0 544.59 357.27
  L 501.49 357.27
  A 1.41 1.40 -8.8 0 1 500.15 356.29
  Q 497.28 347.22 489.13 344.43
  C 483.08 342.36 476.59 343.33 471.64 347.92
  C 462.62 356.28 465.08 372.36 477.01 376.76
  C 486.92 380.42 497.34 375.41 500.00 365.08
  A 1.01 1.00 7.0 0 1 500.98 364.32
  Q 525.51 364.22 540.25 364.31
  Q 542.15 364.32 543.45 365.80
  Q 554.72 378.60 566.89 393.38
  A 3.38 3.35 69.9 0 0 569.50 394.60
  Q 607.44 394.40 667.52 394.60
  C 669.86 394.60 675.46 398.50 676.12 399.06"
/>
<path stroke="#107385" vector-effect="non-scaling-stroke" d="
  M 701.1575 387.2264
  A 23.00 22.70 -97.3 0 0 681.5640 412.9244
  A 23.00 22.70 -97.3 0 0 707.0025 432.8536
  A 23.00 22.70 -97.3 0 0 726.5960 407.1556
  A 23.00 22.70 -97.3 0 0 701.1575 387.2264"
/>
<path stroke="#107385" vector-effect="non-scaling-stroke" d="
  M 503.28 410.14
  C 503.29 420.36 511.72 427.97 521.85 427.30
  Q 533.35 426.55 537.05 414.90
  A 1.76 1.76 0.0 0 1 538.73 413.67
  L 674.72 413.67
  A 0.74 0.73 2.4 0 0 675.46 413.00
  Q 675.58 411.67 675.58 410.08
  Q 675.58 408.48 675.45 407.15
  A 0.74 0.73 -2.4 0 0 674.72 406.48
  L 538.73 406.58
  A 1.76 1.76 0.0 0 1 537.05 405.35
  Q 533.34 393.71 521.84 392.96
  C 511.71 392.30 503.28 399.91 503.28 410.14"
/>
<path stroke="#107385" vector-effect="non-scaling-stroke" d="
  M 904.92 410.07
  C 904.91 399.85 896.48 392.25 886.36 392.91
  Q 874.86 393.67 871.16 405.31
  A 1.76 1.76 0.0 0 1 869.48 406.54
  L 733.54 406.54
  A 0.74 0.73 2.4 0 0 732.80 407.21
  Q 732.68 408.54 732.68 410.13
  Q 732.68 411.73 732.80 413.06
  A 0.74 0.73 -2.4 0 0 733.54 413.73
  L 869.48 413.63
  A 1.76 1.76 0.0 0 1 871.16 414.86
  Q 874.87 426.50 886.37 427.24
  C 896.49 427.90 904.92 420.29 904.92 410.07"
/>
<path stroke="#107385" vector-effect="non-scaling-stroke" d="
  M 651.21 399.42
  A 0.84 0.84 0.0 0 0 650.37 398.58
  L 638.69 398.58
  A 0.84 0.84 0.0 0 0 637.85 399.42
  L 637.85 401.74
  A 0.84 0.84 0.0 0 0 638.69 402.58
  L 650.37 402.58
  A 0.84 0.84 0.0 0 0 651.21 401.74
  L 651.21 399.42"
/>
<path stroke="#107385" vector-effect="non-scaling-stroke" d="
  M 770.40 399.48
  A 0.95 0.95 0.0 0 0 769.45 398.53
  L 757.79 398.53
  A 0.95 0.95 0.0 0 0 756.84 399.48
  L 756.84 401.62
  A 0.95 0.95 0.0 0 0 757.79 402.57
  L 769.45 402.57
  A 0.95 0.95 0.0 0 0 770.40 401.62
  L 770.40 399.48"
/>
<path stroke="#107385" vector-effect="non-scaling-stroke" d="
  M 770.4460 418.7064
  A 0.91 0.91 0.0 0 0 769.5329 417.7996
  L 757.8329 417.8404
  A 0.91 0.91 0.0 0 0 756.9261 418.7536
  L 756.9340 420.9936
  A 0.91 0.91 0.0 0 0 757.8471 421.9004
  L 769.5471 421.8596
  A 0.91 0.91 0.0 0 0 770.4539 420.9464
  L 770.4460 418.7064"
/>
<path stroke="#107385" vector-effect="non-scaling-stroke" d="
  M 651.1462 418.7869
  A 0.88 0.88 0.0 0 0 650.2631 417.9100
  L 638.7832 417.9500
  A 0.88 0.88 0.0 0 0 637.9062 418.8331
  L 637.9138 421.0131
  A 0.88 0.88 0.0 0 0 638.7969 421.8900
  L 650.2768 421.8500
  A 0.88 0.88 0.0 0 0 651.1538 420.9669
  L 651.1462 418.7869"
/>
<path stroke="#107385" vector-effect="non-scaling-stroke" d="
  M 676.64 420.89
  Q 673.60 422.61 670.18 424.89
  Q 668.70 425.90 665.22 425.87
  Q 612.64 425.52 571.46 425.90
  Q 568.97 425.92 567.69 426.38
  A 3.25 3.23 -79.6 0 0 566.35 427.31
  L 516.42 485.23
  A 3.58 3.58 0.0 0 1 513.71 486.47
  L 501.30 486.48
  A 1.26 1.25 80.6 0 1 500.11 485.62
  C 493.31 465.58 465.07 470.26 466.34 492.06
  C 466.87 501.14 475.01 507.52 483.73 507.44
  C 491.54 507.36 498.11 502.04 500.08 494.62
  A 1.47 1.47 0.0 0 1 501.54 493.53
  Q 508.39 493.72 516.99 493.71
  Q 519.04 493.70 520.75 491.53
  C 529.06 480.95 538.07 471.60 545.47 462.32
  Q 550.93 455.49 560.97 444.69
  C 563.96 441.47 566.80 437.77 569.60 434.36
  A 4.08 4.06 19.5 0 1 572.76 432.86
  L 670.01 432.80
  A 1.57 1.56 -60.3 0 0 670.81 432.58
  L 679.36 427.49
  A 1.29 1.29 0.0 0 0 679.88 425.86
  L 677.87 421.29
  A 0.87 0.87 0.0 0 0 676.64 420.89"
/>
<path stroke="#107385" vector-effect="non-scaling-stroke" d="
  M 731.58 420.93
  A 0.87 0.87 0.0 0 0 730.35 421.33
  L 728.34 425.90
  A 1.29 1.29 0.0 0 0 728.86 427.53
  L 737.42 432.62
  A 1.57 1.56 60.3 0 0 738.22 432.84
  L 835.47 432.84
  A 4.08 4.06 -19.5 0 1 838.63 434.34
  C 841.43 437.75 844.27 441.45 847.26 444.67
  Q 857.31 455.46 862.77 462.29
  C 870.18 471.56 879.19 480.91 887.51 491.48
  Q 889.22 493.65 891.27 493.66
  Q 899.87 493.67 906.72 493.47
  A 1.47 1.47 0.0 0 1 908.18 494.56
  C 910.15 501.98 916.73 507.30 924.54 507.37
  C 933.26 507.45 941.39 501.06 941.92 491.98
  C 943.18 470.18 914.93 465.52 908.15 485.56
  A 1.26 1.25 -80.6 0 1 906.96 486.42
  L 894.55 486.42
  A 3.58 3.58 0.0 0 1 891.84 485.18
  L 841.87 427.29
  A 3.25 3.23 79.6 0 0 840.53 426.36
  Q 839.25 425.90 836.76 425.88
  Q 795.58 425.52 743.00 425.90
  Q 739.52 425.93 738.04 424.93
  Q 734.62 422.65 731.58 420.93"
/>
<path stroke="#107385" vector-effect="non-scaling-stroke" d="
  M 704.11 494.19
  Q 609.05 494.20 598.24 494.29
  A 0.94 0.94 0.0 0 1 597.30 493.36
  Q 597.22 484.24 597.19 477.22
  C 597.17 472.20 600.86 470.81 605.18 471.01
  Q 633.17 472.35 646.45 447.95
  Q 648.94 443.37 649.94 438.06
  A 0.84 0.84 0.0 0 0 649.12 437.06
  L 637.21 437.06
  A 0.94 0.93 13.6 0 0 636.38 437.56
  C 635.45 439.31 634.61 442.38 633.66 443.92
  Q 626.38 455.79 612.56 457.40
  C 608.74 457.84 602.64 457.10 598.33 457.89
  C 590.87 459.28 585.54 465.46 584.09 472.55
  Q 583.73 474.30 583.64 482.96
  Q 583.50 496.06 583.82 507.33
  A 0.56 0.55 -0.4 0 0 584.38 507.87
  Q 644.15 507.95 704.11 507.94
  Q 764.07 507.93 823.85 507.84
  A 0.56 0.55 0.4 0 0 824.41 507.30
  Q 824.72 496.03 824.58 482.93
  Q 824.49 474.27 824.13 472.52
  C 822.67 465.43 817.34 459.25 809.88 457.86
  C 805.57 457.07 799.47 457.81 795.65 457.37
  Q 781.83 455.77 774.55 443.90
  C 773.60 442.36 772.76 439.29 771.83 437.54
  A 0.94 0.93 -13.6 0 0 771.00 437.04
  L 759.09 437.04
  A 0.84 0.84 0.0 0 0 758.27 438.04
  Q 759.27 443.35 761.76 447.93
  Q 775.05 472.33 803.04 470.98
  C 807.36 470.78 811.05 472.17 811.03 477.19
  Q 811.00 484.21 810.92 493.33
  A 0.94 0.94 0.0 0 1 809.98 494.26
  Q 799.17 494.18 704.11 494.19"
/>
<path stroke="#107385" vector-effect="non-scaling-stroke" d="
  M 771.71 476.58
  A 6.15 6.15 0.0 0 0 765.56 470.43
  A 6.15 6.15 0.0 0 0 759.41 476.58
  A 6.15 6.15 0.0 0 0 765.56 482.73
  A 6.15 6.15 0.0 0 0 771.71 476.58"
/>
<path stroke="#84e0ee" vector-effect="non-scaling-stroke" d="
  M 890.1095 403.3258
  A 6.67 6.54 -71.2 0 0 881.7689 407.5324
  A 6.67 6.54 -71.2 0 0 885.8105 415.9542
  A 6.67 6.54 -71.2 0 0 894.1511 411.7476
  A 6.67 6.54 -71.2 0 0 890.1095 403.3258"
/>
</g>
<path fill="#09c0dd" d="
  M 704.78 0.00
  L 1022.97 186.92
  A 2.31 2.31 0.0 0 1 1024.11 188.91
  L 1024.11 567.56
  A 2.32 2.31 -16.0 0 1 1023.02 569.52
  L 707.75 768.00
  L 701.37 768.00
  Q 699.11 767.45 697.09 766.19
  Q 632.83 725.69 568.42 684.84
  Q 562.32 680.97 556.01 676.98
  Q 491.59 636.20 385.18 569.61
  A 2.21 2.21 0.0 0 1 384.15 567.74
  L 384.15 189.12
  A 2.55 2.52 75.0 0 1 385.40 186.93
  L 703.26 0.00
  L 704.78 0.00
  Z
  M 704.07 746.09
  Q 704.68 746.09 704.99 745.90
  Q 784.69 697.73 866.96 648.20
  Q 883.43 638.29 900.26 628.20
  Q 908.56 623.23 978.04 581.72
  C 988.41 575.53 998.10 569.28 1009.19 563.14
  A 2.81 2.79 -14.5 0 0 1010.64 560.69
  L 1010.64 196.80
  A 2.03 2.03 0.0 0 0 1009.64 195.05
  L 704.28 15.69
  A 0.16 0.07 -9.1 0 0 704.17 15.66
  Q 704.16 15.66 704.11 15.66
  Q 704.06 15.66 704.05 15.66
  A 0.16 0.07 9.1 0 0 703.94 15.69
  L 398.56 195.02
  A 2.03 2.03 0.0 0 0 397.56 196.77
  L 397.52 560.66
  A 2.81 2.79 14.5 0 0 398.97 563.11
  C 410.06 569.25 419.75 575.50 430.11 581.69
  Q 499.59 623.21 507.89 628.18
  Q 524.72 638.27 541.19 648.18
  Q 623.45 697.72 703.15 745.90
  Q 703.46 746.09 704.07 746.09
  Z"
/>
<path fill="#17252d" d="
  M 704.11 15.66
  Q 704.16 15.66 704.17 15.66
  A 0.16 0.07 -9.1 0 1 704.28 15.69
  L 1009.64 195.05
  A 2.03 2.03 0.0 0 1 1010.64 196.80
  L 1010.64 560.69
  A 2.81 2.79 -14.5 0 1 1009.19 563.14
  C 998.10 569.28 988.41 575.53 978.04 581.72
  Q 908.56 623.23 900.26 628.20
  Q 883.43 638.29 866.96 648.20
  Q 784.69 697.73 704.99 745.90
  Q 704.68 746.09 704.07 746.09
  Q 703.46 746.09 703.15 745.90
  Q 623.45 697.72 541.19 648.18
  Q 524.72 638.27 507.89 628.18
  Q 499.59 623.21 430.11 581.69
  C 419.75 575.50 410.06 569.25 398.97 563.11
  A 2.81 2.79 14.5 0 1 397.52 560.66
  L 397.56 196.77
  A 2.03 2.03 0.0 0 1 398.56 195.02
  L 703.94 15.69
  A 0.16 0.07 9.1 0 1 704.05 15.66
  Q 704.06 15.66 704.11 15.66
  Z
  M 420.00 209.58
  Q 419.23 214.97 419.25 220.50
  Q 419.51 278.18 419.36 340.75
  Q 419.33 351.34 419.30 419.25
  Q 419.28 464.88 419.44 539.50
  C 419.46 547.54 424.86 547.81 429.88 551.72
  C 437.32 557.53 448.96 563.09 456.83 567.88
  Q 474.76 578.79 484.05 584.16
  C 499.22 592.93 512.64 601.53 528.77 610.63
  C 532.66 612.82 537.85 616.25 541.40 618.58
  Q 543.42 619.89 564.07 631.62
  C 570.83 635.45 576.46 639.38 583.02 643.12
  Q 588.64 646.32 597.34 651.56
  C 619.12 664.66 637.99 675.60 656.96 687.14
  Q 680.40 701.41 698.74 711.74
  Q 701.18 713.11 703.83 713.76
  A 2.48 2.45 -46.9 0 0 705.12 713.71
  Q 707.35 712.99 708.23 712.49
  Q 721.26 705.02 751.19 687.44
  C 762.24 680.95 773.67 673.47 784.96 667.22
  C 798.26 659.86 817.73 647.14 827.75 641.63
  Q 831.67 639.47 839.60 634.66
  C 850.88 627.81 855.58 624.88 869.22 617.16
  Q 876.46 613.05 883.99 608.29
  C 895.90 600.77 905.35 595.93 916.94 588.59
  Q 924.14 584.03 937.45 576.44
  C 945.78 571.70 953.06 566.61 961.36 562.28
  C 969.05 558.27 974.84 554.30 984.97 547.73
  C 987.53 546.07 988.38 544.70 988.67 541.93
  Q 988.98 538.95 988.93 533.78
  Q 988.63 502.09 988.63 497.28
  Q 988.66 288.45 988.65 248.51
  C 988.64 238.68 988.94 229.11 988.83 218.50
  C 988.78 213.90 988.68 208.64 985.33 206.41
  C 982.45 204.49 978.70 201.63 975.99 200.11
  Q 951.37 186.29 937.12 177.61
  Q 922.74 168.85 914.91 164.57
  C 906.77 160.13 899.79 155.17 890.76 150.07
  C 877.31 142.48 859.90 131.59 849.83 125.96
  Q 828.74 114.18 823.06 110.34
  C 817.49 106.57 810.25 102.92 804.63 99.41
  Q 798.85 95.79 790.79 91.27
  C 777.11 83.60 767.24 77.10 753.20 69.39
  Q 748.05 66.56 737.31 60.02
  Q 729.74 55.40 711.47 44.28
  Q 710.14 43.47 705.06 41.44
  A 2.36 2.35 -38.4 0 0 703.82 41.30
  Q 702.76 41.49 700.54 42.54
  C 695.77 44.82 690.24 48.72 685.94 51.21
  Q 668.80 61.12 663.84 63.94
  Q 650.04 71.80 641.87 76.89
  C 629.42 84.65 617.03 91.20 604.37 98.94
  C 598.24 102.70 584.15 111.27 574.45 116.61
  C 563.20 122.81 554.10 128.87 542.26 135.56
  Q 530.31 142.30 521.18 148.04
  C 510.16 154.97 499.56 160.22 488.26 167.49
  C 482.09 171.45 477.06 174.10 468.78 178.78
  Q 462.21 182.49 454.37 187.52
  Q 444.91 193.59 438.38 196.64
  C 432.35 199.46 426.08 204.49 421.51 207.28
  A 3.26 3.22 78.6 0 0 420.00 209.58
  Z"
/>
<path fill="#394b55" d="
  M 420.00 209.58
  A 3.26 3.22 78.6 0 1 421.51 207.28
  C 426.08 204.49 432.35 199.46 438.38 196.64
  Q 444.91 193.59 454.37 187.52
  Q 462.21 182.49 468.78 178.78
  C 477.06 174.10 482.09 171.45 488.26 167.49
  C 499.56 160.22 510.16 154.97 521.18 148.04
  Q 530.31 142.30 542.26 135.56
  C 554.10 128.87 563.20 122.81 574.45 116.61
  C 584.15 111.27 598.24 102.70 604.37 98.94
  C 617.03 91.20 629.42 84.65 641.87 76.89
  Q 650.04 71.80 663.84 63.94
  Q 668.80 61.12 685.94 51.21
  C 690.24 48.72 695.77 44.82 700.54 42.54
  Q 702.76 41.49 703.82 41.30
  A 2.36 2.35 -38.4 0 1 705.06 41.44
  Q 710.14 43.47 711.47 44.28
  Q 729.74 55.40 737.31 60.02
  Q 748.05 66.56 753.20 69.39
  C 767.24 77.10 777.11 83.60 790.79 91.27
  Q 798.85 95.79 804.63 99.41
  C 810.25 102.92 817.49 106.57 823.06 110.34
  Q 828.74 114.18 849.83 125.96
  C 859.90 131.59 877.31 142.48 890.76 150.07
  C 899.79 155.17 906.77 160.13 914.91 164.57
  Q 922.74 168.85 937.12 177.61
  Q 951.37 186.29 975.99 200.11
  C 978.70 201.63 982.45 204.49 985.33 206.41
  C 988.68 208.64 988.78 213.90 988.83 218.50
  C 988.94 229.11 988.64 238.68 988.65 248.51
  Q 988.66 288.45 988.63 497.28
  Q 988.63 502.09 988.93 533.78
  Q 988.98 538.95 988.67 541.93
  C 988.38 544.70 987.53 546.07 984.97 547.73
  C 974.84 554.30 969.05 558.27 961.36 562.28
  C 953.06 566.61 945.78 571.70 937.45 576.44
  Q 924.14 584.03 916.94 588.59
  C 905.35 595.93 895.90 600.77 883.99 608.29
  Q 876.46 613.05 869.22 617.16
  C 855.58 624.88 850.88 627.81 839.60 634.66
  Q 831.67 639.47 827.75 641.63
  C 817.73 647.14 798.26 659.86 784.96 667.22
  C 773.67 673.47 762.24 680.95 751.19 687.44
  Q 721.26 705.02 708.23 712.49
  Q 707.35 712.99 705.12 713.71
  A 2.48 2.45 -46.9 0 1 703.83 713.76
  Q 701.18 713.11 698.74 711.74
  Q 680.40 701.41 656.96 687.14
  C 637.99 675.60 619.12 664.66 597.34 651.56
  Q 588.64 646.32 583.02 643.12
  C 576.46 639.38 570.83 635.45 564.07 631.62
  Q 543.42 619.89 541.40 618.58
  C 537.85 616.25 532.66 612.82 528.77 610.63
  C 512.64 601.53 499.22 592.93 484.05 584.16
  Q 474.76 578.79 456.83 567.88
  C 448.96 563.09 437.32 557.53 429.88 551.72
  C 424.86 547.81 419.46 547.54 419.44 539.50
  Q 419.28 464.88 419.30 419.25
  Q 419.33 351.34 419.36 340.75
  Q 419.51 278.18 419.25 220.50
  Q 419.23 214.97 420.00 209.58
  Z
  M 433.81 216.90
  L 433.81 536.32
  A 2.69 2.68 -74.7 0 0 435.12 538.63
  L 703.15 698.02
  A 1.98 1.97 44.6 0 0 705.16 698.01
  Q 727.28 684.75 736.39 679.15
  Q 740.76 676.47 757.74 666.92
  Q 760.72 665.25 764.21 662.95
  C 767.74 660.63 771.48 658.99 774.93 656.52
  Q 777.51 654.66 779.04 653.77
  Q 804.44 639.03 828.35 624.60
  Q 833.37 621.57 839.35 618.18
  C 848.33 613.07 856.96 607.63 866.71 601.91
  Q 880.61 593.76 896.93 583.74
  C 900.20 581.73 903.90 579.93 906.54 578.29
  C 921.70 568.83 936.42 560.60 953.49 550.21
  Q 962.18 544.91 973.10 539.12
  A 2.77 2.73 76.3 0 0 974.56 536.68
  L 974.56 217.19
  A 1.13 1.11 -57.0 0 0 974.47 216.75
  Q 973.78 215.18 971.70 214.14
  Q 963.53 210.07 953.46 203.72
  C 938.64 194.38 923.97 186.45 908.69 177.21
  C 894.24 168.48 881.22 161.26 869.51 154.00
  C 859.88 148.02 851.98 143.91 840.54 136.99
  Q 832.39 132.06 818.85 124.17
  C 781.01 102.12 743.30 79.50 705.38 57.64
  A 2.24 2.22 46.2 0 0 703.24 57.59
  Q 699.69 59.43 697.64 60.64
  Q 669.95 76.86 567.16 137.38
  Q 523.02 163.37 519.48 165.53
  Q 512.48 169.79 511.59 170.31
  C 496.74 178.92 486.67 185.39 473.09 193.10
  C 462.02 199.39 457.59 202.08 448.80 207.55
  Q 442.45 211.50 434.94 215.10
  A 2.01 2.00 -13.1 0 0 433.81 216.90
  Z"
/>
<path fill="#17252d" d="
  M 433.81 216.90
  A 2.01 2.00 -13.1 0 1 434.94 215.10
  Q 442.45 211.50 448.80 207.55
  C 457.59 202.08 462.02 199.39 473.09 193.10
  C 486.67 185.39 496.74 178.92 511.59 170.31
  Q 512.48 169.79 519.48 165.53
  Q 523.02 163.37 567.16 137.38
  Q 669.95 76.86 697.64 60.64
  Q 699.69 59.43 703.24 57.59
  A 2.24 2.22 46.2 0 1 705.38 57.64
  C 743.30 79.50 781.01 102.12 818.85 124.17
  Q 832.39 132.06 840.54 136.99
  C 851.98 143.91 859.88 148.02 869.51 154.00
  C 881.22 161.26 894.24 168.48 908.69 177.21
  C 923.97 186.45 938.64 194.38 953.46 203.72
  Q 963.53 210.07 971.70 214.14
  Q 973.78 215.18 974.47 216.75
  A 1.13 1.11 -57.0 0 1 974.56 217.19
  L 974.56 536.68
  A 2.77 2.73 76.3 0 1 973.10 539.12
  Q 962.18 544.91 953.49 550.21
  C 936.42 560.60 921.70 568.83 906.54 578.29
  C 903.90 579.93 900.20 581.73 896.93 583.74
  Q 880.61 593.76 866.71 601.91
  C 856.96 607.63 848.33 613.07 839.35 618.18
  Q 833.37 621.57 828.35 624.60
  Q 804.44 639.03 779.04 653.77
  Q 777.51 654.66 774.93 656.52
  C 771.48 658.99 767.74 660.63 764.21 662.95
  Q 760.72 665.25 757.74 666.92
  Q 740.76 676.47 736.39 679.15
  Q 727.28 684.75 705.16 698.01
  A 1.98 1.97 44.6 0 1 703.15 698.02
  L 435.12 538.63
  A 2.69 2.68 -74.7 0 1 433.81 536.32
  L 433.81 216.90
  Z
  M 704.17 295.04
  Q 713.34 295.04 731.00 294.50
  C 761.45 293.56 792.00 291.17 819.09 288.69
  C 850.30 285.84 884.64 283.34 913.28 280.76
  Q 919.46 280.21 921.60 280.98
  C 929.29 283.75 931.51 292.96 926.00 298.62
  Q 924.19 300.48 916.61 302.77
  C 890.72 310.58 870.51 315.69 843.65 323.64
  Q 827.21 328.51 811.61 332.62
  Q 805.31 334.28 802.55 335.24
  C 794.97 337.87 786.51 339.59 780.39 342.95
  C 765.57 351.11 757.98 365.81 756.88 382.47
  A 0.81 0.81 0.0 0 0 757.69 383.33
  L 769.75 383.33
  A 0.97 0.97 0.0 0 0 770.72 382.40
  C 771.17 369.43 778.98 356.71 791.73 352.69
  Q 802.49 349.29 815.69 345.74
  C 829.74 341.96 846.73 336.66 861.59 332.59
  C 883.01 326.72 903.53 320.56 924.60 314.58
  C 940.55 310.06 947.93 290.91 938.09 277.08
  C 929.52 265.03 919.42 266.60 904.19 267.91
  Q 830.56 274.25 823.00 274.92
  Q 806.65 276.38 758.24 279.68
  Q 732.78 281.41 704.75 281.80
  Q 704.46 281.80 704.17 281.80
  Q 703.88 281.80 703.59 281.80
  Q 675.56 281.40 650.10 279.67
  Q 601.69 276.35 585.34 274.89
  Q 577.78 274.22 504.15 267.86
  C 488.92 266.54 478.82 264.97 470.25 277.02
  C 460.41 290.84 467.78 310.00 483.73 314.52
  C 504.80 320.51 525.32 326.67 546.73 332.55
  C 561.59 336.62 578.58 341.93 592.63 345.71
  Q 605.83 349.26 616.59 352.67
  C 629.34 356.69 637.14 369.41 637.59 382.38
  A 0.97 0.97 0.0 0 0 638.56 383.31
  L 650.62 383.32
  A 0.81 0.81 0.0 0 0 651.43 382.46
  C 650.33 365.80 642.75 351.09 627.93 342.93
  C 621.81 339.57 613.35 337.85 605.77 335.21
  Q 603.01 334.25 596.71 332.59
  Q 581.12 328.48 564.68 323.60
  C 537.82 315.64 517.61 310.53 491.72 302.71
  Q 484.14 300.42 482.33 298.56
  C 476.82 292.90 479.05 283.69 486.74 280.92
  Q 488.88 280.15 495.06 280.70
  C 523.70 283.29 558.04 285.80 589.25 288.66
  C 616.34 291.15 646.88 293.54 677.33 294.49
  Q 694.99 295.04 704.17 295.04
  Z
  M 732.21 399.07
  C 732.87 398.51 738.46 394.61 740.80 394.61
  Q 800.87 394.38 838.80 394.57
  A 3.37 3.35 -69.9 0 0 841.41 393.35
  Q 853.57 378.57 864.83 365.77
  Q 866.13 364.29 868.03 364.28
  Q 882.77 364.18 907.29 364.27
  A 1.01 1.00 -7.0 0 1 908.27 365.03
  C 910.94 375.36 921.36 380.36 931.26 376.70
  C 943.19 372.30 945.64 356.22 936.62 347.86
  C 931.67 343.28 925.18 342.31 919.13 344.38
  Q 910.99 347.17 908.12 356.24
  A 1.41 1.40 8.7 0 1 906.78 357.22
  L 863.69 357.24
  A 2.64 2.63 19.8 0 0 861.66 358.19
  L 838.29 386.15
  A 3.67 3.65 -70.0 0 1 835.48 387.47
  L 739.33 387.51
  A 7.04 7.01 -60.1 0 0 735.77 388.48
  L 729.35 392.25
  A 1.87 1.87 0.0 0 0 728.62 394.69
  L 730.60 398.73
  A 1.05 1.04 56.8 0 0 732.21 399.07
  Z
  M 676.12 399.06
  A 1.05 1.04 -56.9 0 0 677.73 398.72
  L 679.70 394.68
  A 1.87 1.87 0.0 0 0 678.97 392.24
  L 672.55 388.47
  A 7.04 7.01 60.1 0 0 668.99 387.50
  L 572.82 387.50
  A 3.67 3.65 70.0 0 1 570.01 386.18
  L 546.62 358.22
  A 2.65 2.63 -19.8 0 0 544.59 357.27
  L 501.49 357.27
  A 1.41 1.40 -8.8 0 1 500.15 356.29
  Q 497.28 347.22 489.13 344.43
  C 483.08 342.36 476.59 343.33 471.64 347.92
  C 462.62 356.28 465.08 372.36 477.01 376.76
  C 486.92 380.42 497.34 375.41 500.00 365.08
  A 1.01 1.00 7.0 0 1 500.98 364.32
  Q 525.51 364.22 540.25 364.31
  Q 542.15 364.32 543.45 365.80
  Q 554.72 378.60 566.89 393.38
  A 3.38 3.35 69.9 0 0 569.50 394.60
  Q 607.44 394.40 667.52 394.60
  C 669.86 394.60 675.46 398.50 676.12 399.06
  Z
  M 701.1575 387.2264
  A 23.00 22.70 -97.3 0 0 681.5640 412.9244
  A 23.00 22.70 -97.3 0 0 707.0025 432.8536
  A 23.00 22.70 -97.3 0 0 726.5960 407.1556
  A 23.00 22.70 -97.3 0 0 701.1575 387.2264
  Z
  M 503.28 410.14
  C 503.29 420.36 511.72 427.97 521.85 427.30
  Q 533.35 426.55 537.05 414.90
  A 1.76 1.76 0.0 0 1 538.73 413.67
  L 674.72 413.67
  A 0.74 0.73 2.4 0 0 675.46 413.00
  Q 675.58 411.67 675.58 410.08
  Q 675.58 408.48 675.45 407.15
  A 0.74 0.73 -2.4 0 0 674.72 406.48
  L 538.73 406.58
  A 1.76 1.76 0.0 0 1 537.05 405.35
  Q 533.34 393.71 521.84 392.96
  C 511.71 392.30 503.28 399.91 503.28 410.14
  Z
  M 904.92 410.07
  C 904.91 399.85 896.48 392.25 886.36 392.91
  Q 874.86 393.67 871.16 405.31
  A 1.76 1.76 0.0 0 1 869.48 406.54
  L 733.54 406.54
  A 0.74 0.73 2.4 0 0 732.80 407.21
  Q 732.68 408.54 732.68 410.13
  Q 732.68 411.73 732.80 413.06
  A 0.74 0.73 -2.4 0 0 733.54 413.73
  L 869.48 413.63
  A 1.76 1.76 0.0 0 1 871.16 414.86
  Q 874.87 426.50 886.37 427.24
  C 896.49 427.90 904.92 420.29 904.92 410.07
  Z
  M 651.21 399.42
  A 0.84 0.84 0.0 0 0 650.37 398.58
  L 638.69 398.58
  A 0.84 0.84 0.0 0 0 637.85 399.42
  L 637.85 401.74
  A 0.84 0.84 0.0 0 0 638.69 402.58
  L 650.37 402.58
  A 0.84 0.84 0.0 0 0 651.21 401.74
  L 651.21 399.42
  Z
  M 770.40 399.48
  A 0.95 0.95 0.0 0 0 769.45 398.53
  L 757.79 398.53
  A 0.95 0.95 0.0 0 0 756.84 399.48
  L 756.84 401.62
  A 0.95 0.95 0.0 0 0 757.79 402.57
  L 769.45 402.57
  A 0.95 0.95 0.0 0 0 770.40 401.62
  L 770.40 399.48
  Z
  M 770.4460 418.7064
  A 0.91 0.91 0.0 0 0 769.5329 417.7996
  L 757.8329 417.8404
  A 0.91 0.91 0.0 0 0 756.9261 418.7536
  L 756.9340 420.9936
  A 0.91 0.91 0.0 0 0 757.8471 421.9004
  L 769.5471 421.8596
  A 0.91 0.91 0.0 0 0 770.4539 420.9464
  L 770.4460 418.7064
  Z
  M 651.1462 418.7869
  A 0.88 0.88 0.0 0 0 650.2631 417.9100
  L 638.7832 417.9500
  A 0.88 0.88 0.0 0 0 637.9062 418.8331
  L 637.9138 421.0131
  A 0.88 0.88 0.0 0 0 638.7969 421.8900
  L 650.2768 421.8500
  A 0.88 0.88 0.0 0 0 651.1538 420.9669
  L 651.1462 418.7869
  Z
  M 676.64 420.89
  Q 673.60 422.61 670.18 424.89
  Q 668.70 425.90 665.22 425.87
  Q 612.64 425.52 571.46 425.90
  Q 568.97 425.92 567.69 426.38
  A 3.25 3.23 -79.6 0 0 566.35 427.31
  L 516.42 485.23
  A 3.58 3.58 0.0 0 1 513.71 486.47
  L 501.30 486.48
  A 1.26 1.25 80.6 0 1 500.11 485.62
  C 493.31 465.58 465.07 470.26 466.34 492.06
  C 466.87 501.14 475.01 507.52 483.73 507.44
  C 491.54 507.36 498.11 502.04 500.08 494.62
  A 1.47 1.47 0.0 0 1 501.54 493.53
  Q 508.39 493.72 516.99 493.71
  Q 519.04 493.70 520.75 491.53
  C 529.06 480.95 538.07 471.60 545.47 462.32
  Q 550.93 455.49 560.97 444.69
  C 563.96 441.47 566.80 437.77 569.60 434.36
  A 4.08 4.06 19.5 0 1 572.76 432.86
  L 670.01 432.80
  A 1.57 1.56 -60.3 0 0 670.81 432.58
  L 679.36 427.49
  A 1.29 1.29 0.0 0 0 679.88 425.86
  L 677.87 421.29
  A 0.87 0.87 0.0 0 0 676.64 420.89
  Z
  M 731.58 420.93
  A 0.87 0.87 0.0 0 0 730.35 421.33
  L 728.34 425.90
  A 1.29 1.29 0.0 0 0 728.86 427.53
  L 737.42 432.62
  A 1.57 1.56 60.3 0 0 738.22 432.84
  L 835.47 432.84
  A 4.08 4.06 -19.5 0 1 838.63 434.34
  C 841.43 437.75 844.27 441.45 847.26 444.67
  Q 857.31 455.46 862.77 462.29
  C 870.18 471.56 879.19 480.91 887.51 491.48
  Q 889.22 493.65 891.27 493.66
  Q 899.87 493.67 906.72 493.47
  A 1.47 1.47 0.0 0 1 908.18 494.56
  C 910.15 501.98 916.73 507.30 924.54 507.37
  C 933.26 507.45 941.39 501.06 941.92 491.98
  C 943.18 470.18 914.93 465.52 908.15 485.56
  A 1.26 1.25 -80.6 0 1 906.96 486.42
  L 894.55 486.42
  A 3.58 3.58 0.0 0 1 891.84 485.18
  L 841.87 427.29
  A 3.25 3.23 79.6 0 0 840.53 426.36
  Q 839.25 425.90 836.76 425.88
  Q 795.58 425.52 743.00 425.90
  Q 739.52 425.93 738.04 424.93
  Q 734.62 422.65 731.58 420.93
  Z
  M 704.11 494.19
  Q 609.05 494.20 598.24 494.29
  A 0.94 0.94 0.0 0 1 597.30 493.36
  Q 597.22 484.24 597.19 477.22
  C 597.17 472.20 600.86 470.81 605.18 471.01
  Q 633.17 472.35 646.45 447.95
  Q 648.94 443.37 649.94 438.06
  A 0.84 0.84 0.0 0 0 649.12 437.06
  L 637.21 437.06
  A 0.94 0.93 13.6 0 0 636.38 437.56
  C 635.45 439.31 634.61 442.38 633.66 443.92
  Q 626.38 455.79 612.56 457.40
  C 608.74 457.84 602.64 457.10 598.33 457.89
  C 590.87 459.28 585.54 465.46 584.09 472.55
  Q 583.73 474.30 583.64 482.96
  Q 583.50 496.06 583.82 507.33
  A 0.56 0.55 -0.4 0 0 584.38 507.87
  Q 644.15 507.95 704.11 507.94
  Q 764.07 507.93 823.85 507.84
  A 0.56 0.55 0.4 0 0 824.41 507.30
  Q 824.72 496.03 824.58 482.93
  Q 824.49 474.27 824.13 472.52
  C 822.67 465.43 817.34 459.25 809.88 457.86
  C 805.57 457.07 799.47 457.81 795.65 457.37
  Q 781.83 455.77 774.55 443.90
  C 773.60 442.36 772.76 439.29 771.83 437.54
  A 0.94 0.93 -13.6 0 0 771.00 437.04
  L 759.09 437.04
  A 0.84 0.84 0.0 0 0 758.27 438.04
  Q 759.27 443.35 761.76 447.93
  Q 775.05 472.33 803.04 470.98
  C 807.36 470.78 811.05 472.17 811.03 477.19
  Q 811.00 484.21 810.92 493.33
  A 0.94 0.94 0.0 0 1 809.98 494.26
  Q 799.17 494.18 704.11 494.19
  Z
  M 771.71 476.58
  A 6.15 6.15 0.0 0 0 765.56 470.43
  A 6.15 6.15 0.0 0 0 759.41 476.58
  A 6.15 6.15 0.0 0 0 765.56 482.73
  A 6.15 6.15 0.0 0 0 771.71 476.58
  Z"
/>
<path fill="#09c0dd" d="
  M 704.17 281.80
  Q 704.46 281.80 704.75 281.80
  Q 732.78 281.41 758.24 279.68
  Q 806.65 276.38 823.00 274.92
  Q 830.56 274.25 904.19 267.91
  C 919.42 266.60 929.52 265.03 938.09 277.08
  C 947.93 290.91 940.55 310.06 924.60 314.58
  C 903.53 320.56 883.01 326.72 861.59 332.59
  C 846.73 336.66 829.74 341.96 815.69 345.74
  Q 802.49 349.29 791.73 352.69
  C 778.98 356.71 771.17 369.43 770.72 382.40
  A 0.97 0.97 0.0 0 1 769.75 383.33
  L 757.69 383.33
  A 0.81 0.81 0.0 0 1 756.88 382.47
  C 757.98 365.81 765.57 351.11 780.39 342.95
  C 786.51 339.59 794.97 337.87 802.55 335.24
  Q 805.31 334.28 811.61 332.62
  Q 827.21 328.51 843.65 323.64
  C 870.51 315.69 890.72 310.58 916.61 302.77
  Q 924.19 300.48 926.00 298.62
  C 931.51 292.96 929.29 283.75 921.60 280.98
  Q 919.46 280.21 913.28 280.76
  C 884.64 283.34 850.30 285.84 819.09 288.69
  C 792.00 291.17 761.45 293.56 731.00 294.50
  Q 713.34 295.04 704.17 295.04
  Q 694.99 295.04 677.33 294.49
  C 646.88 293.54 616.34 291.15 589.25 288.66
  C 558.04 285.80 523.70 283.29 495.06 280.70
  Q 488.88 280.15 486.74 280.92
  C 479.05 283.69 476.82 292.90 482.33 298.56
  Q 484.14 300.42 491.72 302.71
  C 517.61 310.53 537.82 315.64 564.68 323.60
  Q 581.12 328.48 596.71 332.59
  Q 603.01 334.25 605.77 335.21
  C 613.35 337.85 621.81 339.57 627.93 342.93
  C 642.75 351.09 650.33 365.80 651.43 382.46
  A 0.81 0.81 0.0 0 1 650.62 383.32
  L 638.56 383.31
  A 0.97 0.97 0.0 0 1 637.59 382.38
  C 637.14 369.41 629.34 356.69 616.59 352.67
  Q 605.83 349.26 592.63 345.71
  C 578.58 341.93 561.59 336.62 546.73 332.55
  C 525.32 326.67 504.80 320.51 483.73 314.52
  C 467.78 310.00 460.41 290.84 470.25 277.02
  C 478.82 264.97 488.92 266.54 504.15 267.86
  Q 577.78 274.22 585.34 274.89
  Q 601.69 276.35 650.10 279.67
  Q 675.56 281.40 703.59 281.80
  Q 703.88 281.80 704.17 281.80
  Z"
/>
<path fill="#09c0dd" d="
  M 732.21 399.07
  A 1.05 1.04 56.8 0 1 730.60 398.73
  L 728.62 394.69
  A 1.87 1.87 0.0 0 1 729.35 392.25
  L 735.77 388.48
  A 7.04 7.01 -60.1 0 1 739.33 387.51
  L 835.48 387.47
  A 3.67 3.65 -70.0 0 0 838.29 386.15
  L 861.66 358.19
  A 2.64 2.63 19.8 0 1 863.69 357.24
  L 906.78 357.22
  A 1.41 1.40 8.7 0 0 908.12 356.24
  Q 910.99 347.17 919.13 344.38
  C 925.18 342.31 931.67 343.28 936.62 347.86
  C 945.64 356.22 943.19 372.30 931.26 376.70
  C 921.36 380.36 910.94 375.36 908.27 365.03
  A 1.01 1.00 -7.0 0 0 907.29 364.27
  Q 882.77 364.18 868.03 364.28
  Q 866.13 364.29 864.83 365.77
  Q 853.57 378.57 841.41 393.35
  A 3.37 3.35 -69.9 0 1 838.80 394.57
  Q 800.87 394.38 740.80 394.61
  C 738.46 394.61 732.87 398.51 732.21 399.07
  Z"
/>
<path fill="#09c0dd" d="
  M 676.12 399.06
  C 675.46 398.50 669.86 394.60 667.52 394.60
  Q 607.44 394.40 569.50 394.60
  A 3.38 3.35 69.9 0 1 566.89 393.38
  Q 554.72 378.60 543.45 365.80
  Q 542.15 364.32 540.25 364.31
  Q 525.51 364.22 500.98 364.32
  A 1.01 1.00 7.0 0 0 500.00 365.08
  C 497.34 375.41 486.92 380.42 477.01 376.76
  C 465.08 372.36 462.62 356.28 471.64 347.92
  C 476.59 343.33 483.08 342.36 489.13 344.43
  Q 497.28 347.22 500.15 356.29
  A 1.41 1.40 -8.8 0 0 501.49 357.27
  L 544.59 357.27
  A 2.65 2.63 -19.8 0 1 546.62 358.22
  L 570.01 386.18
  A 3.67 3.65 70.0 0 0 572.82 387.50
  L 668.99 387.50
  A 7.04 7.01 60.1 0 1 672.55 388.47
  L 678.97 392.24
  A 1.87 1.87 0.0 0 1 679.70 394.68
  L 677.73 398.72
  A 1.05 1.04 -56.9 0 1 676.12 399.06
  Z"
/>
<ellipse fill="#09c0dd" cx="0.00" cy="0.00" transform="translate(704.08,410.04) rotate(-97.3)" rx="23.00" ry="22.70"/>
<path fill="#09c0dd" d="
  M 675.58 410.08
  Q 675.58 411.67 675.46 413.00
  A 0.74 0.73 2.4 0 1 674.72 413.67
  L 538.73 413.67
  A 1.76 1.76 0.0 0 0 537.05 414.90
  Q 533.35 426.55 521.85 427.30
  C 511.72 427.97 503.29 420.36 503.28 410.14
  C 503.28 399.91 511.71 392.30 521.84 392.96
  Q 533.34 393.71 537.05 405.35
  A 1.76 1.76 0.0 0 0 538.73 406.58
  L 674.72 406.48
  A 0.74 0.73 -2.4 0 1 675.45 407.15
  Q 675.58 408.48 675.58 410.08
  Z"
/>
<path fill="#09c0dd" d="
  M 904.92 410.07
  C 904.92 420.29 896.49 427.90 886.37 427.24
  Q 874.87 426.50 871.16 414.86
  A 1.76 1.76 0.0 0 0 869.48 413.63
  L 733.54 413.73
  A 0.74 0.73 -2.4 0 1 732.80 413.06
  Q 732.68 411.73 732.68 410.13
  Q 732.68 408.54 732.80 407.21
  A 0.74 0.73 2.4 0 1 733.54 406.54
  L 869.48 406.54
  A 1.76 1.76 0.0 0 0 871.16 405.31
  Q 874.86 393.67 886.36 392.91
  C 896.48 392.25 904.91 399.85 904.92 410.07
  Z
  M 890.1095 403.3258
  A 6.67 6.54 -71.2 0 0 881.7689 407.5324
  A 6.67 6.54 -71.2 0 0 885.8105 415.9542
  A 6.67 6.54 -71.2 0 0 894.1511 411.7476
  A 6.67 6.54 -71.2 0 0 890.1095 403.3258
  Z"
/>
<rect fill="#09c0dd" x="637.85" y="398.58" width="13.36" height="4.00" rx="0.84"/>
<rect fill="#09c0dd" x="756.84" y="398.53" width="13.56" height="4.04" rx="0.95"/>
<ellipse fill="#ffffff" cx="0.00" cy="0.00" transform="translate(887.96,409.64) rotate(-71.2)" rx="6.67" ry="6.54"/>
<rect fill="#09c0dd" x="-6.76" y="-2.03" transform="translate(763.69,419.85) rotate(-0.2)" width="13.52" height="4.06" rx="0.91"/>
<rect fill="#09c0dd" x="-6.62" y="-1.97" transform="translate(644.53,419.90) rotate(-0.2)" width="13.24" height="3.94" rx="0.88"/>
<path fill="#09c0dd" d="
  M 676.64 420.89
  A 0.87 0.87 0.0 0 1 677.87 421.29
  L 679.88 425.86
  A 1.29 1.29 0.0 0 1 679.36 427.49
  L 670.81 432.58
  A 1.57 1.56 -60.3 0 1 670.01 432.80
  L 572.76 432.86
  A 4.08 4.06 19.5 0 0 569.60 434.36
  C 566.80 437.77 563.96 441.47 560.97 444.69
  Q 550.93 455.49 545.47 462.32
  C 538.07 471.60 529.06 480.95 520.75 491.53
  Q 519.04 493.70 516.99 493.71
  Q 508.39 493.72 501.54 493.53
  A 1.47 1.47 0.0 0 0 500.08 494.62
  C 498.11 502.04 491.54 507.36 483.73 507.44
  C 475.01 507.52 466.87 501.14 466.34 492.06
  C 465.07 470.26 493.31 465.58 500.11 485.62
  A 1.26 1.25 80.6 0 0 501.30 486.48
  L 513.71 486.47
  A 3.58 3.58 0.0 0 0 516.42 485.23
  L 566.35 427.31
  A 3.25 3.23 -79.6 0 1 567.69 426.38
  Q 568.97 425.92 571.46 425.90
  Q 612.64 425.52 665.22 425.87
  Q 668.70 425.90 670.18 424.89
  Q 673.60 422.61 676.64 420.89
  Z"
/>
<path fill="#09c0dd" d="
  M 731.58 420.93
  Q 734.62 422.65 738.04 424.93
  Q 739.52 425.93 743.00 425.90
  Q 795.58 425.52 836.76 425.88
  Q 839.25 425.90 840.53 426.36
  A 3.25 3.23 79.6 0 1 841.87 427.29
  L 891.84 485.18
  A 3.58 3.58 0.0 0 0 894.55 486.42
  L 906.96 486.42
  A 1.26 1.25 -80.6 0 0 908.15 485.56
  C 914.93 465.52 943.18 470.18 941.92 491.98
  C 941.39 501.06 933.26 507.45 924.54 507.37
  C 916.73 507.30 910.15 501.98 908.18 494.56
  A 1.47 1.47 0.0 0 0 906.72 493.47
  Q 899.87 493.67 891.27 493.66
  Q 889.22 493.65 887.51 491.48
  C 879.19 480.91 870.18 471.56 862.77 462.29
  Q 857.31 455.46 847.26 444.67
  C 844.27 441.45 841.43 437.75 838.63 434.34
  A 4.08 4.06 -19.5 0 0 835.47 432.84
  L 738.22 432.84
  A 1.57 1.56 60.3 0 1 737.42 432.62
  L 728.86 427.53
  A 1.29 1.29 0.0 0 1 728.34 425.90
  L 730.35 421.33
  A 0.87 0.87 0.0 0 1 731.58 420.93
  Z"
/>
<path fill="#09c0dd" d="
  M 704.11 507.94
  Q 644.15 507.95 584.38 507.87
  A 0.56 0.55 -0.4 0 1 583.82 507.33
  Q 583.50 496.06 583.64 482.96
  Q 583.73 474.30 584.09 472.55
  C 585.54 465.46 590.87 459.28 598.33 457.89
  C 602.64 457.10 608.74 457.84 612.56 457.40
  Q 626.38 455.79 633.66 443.92
  C 634.61 442.38 635.45 439.31 636.38 437.56
  A 0.94 0.93 13.6 0 1 637.21 437.06
  L 649.12 437.06
  A 0.84 0.84 0.0 0 1 649.94 438.06
  Q 648.94 443.37 646.45 447.95
  Q 633.17 472.35 605.18 471.01
  C 600.86 470.81 597.17 472.20 597.19 477.22
  Q 597.22 484.24 597.30 493.36
  A 0.94 0.94 0.0 0 0 598.24 494.29
  Q 609.05 494.20 704.11 494.19
  Q 799.17 494.18 809.98 494.26
  A 0.94 0.94 0.0 0 0 810.92 493.33
  Q 811.00 484.21 811.03 477.19
  C 811.05 472.17 807.36 470.78 803.04 470.98
  Q 775.05 472.33 761.76 447.93
  Q 759.27 443.35 758.27 438.04
  A 0.84 0.84 0.0 0 1 759.09 437.04
  L 771.00 437.04
  A 0.94 0.93 -13.6 0 1 771.83 437.54
  C 772.76 439.29 773.60 442.36 774.55 443.90
  Q 781.83 455.77 795.65 457.37
  C 799.47 457.81 805.57 457.07 809.88 457.86
  C 817.34 459.25 822.67 465.43 824.13 472.52
  Q 824.49 474.27 824.58 482.93
  Q 824.72 496.03 824.41 507.30
  A 0.56 0.55 0.4 0 1 823.85 507.84
  Q 764.07 507.93 704.11 507.94
  Z"
/>
<circle fill="#09c0dd" cx="765.56" cy="476.58" r="6.15"/>

</svg>
<path d="M249.04 110.95L249.04 110.95Q244.82 110.95 241.32 108.91Q237.82 106.87 235.68 103.03Q233.54 99.19 233.54 93.75L233.54 93.75L233.54 92.73Q233.54 87.36 235.64 83.51Q237.75 79.67 241.29 77.60Q244.82 75.52 249.04 75.52L249.04 75.52Q253.94 75.52 256.55 77.26Q259.17 78.99 260.33 81.03L260.33 81.03L261.42 81.03L261.42 62.40L268.42 62.40L268.42 110L261.55 110L261.55 105.24L260.46 105.24Q259.17 107.42 256.55 109.18Q253.94 110.95 249.04 110.95ZM251.01 104.83L251.01 104.83Q255.57 104.83 258.53 101.91Q261.48 98.98 261.48 93.54L261.48 93.54L261.48 92.93Q261.48 87.56 258.53 84.64Q255.57 81.71 251.01 81.71L251.01 81.71Q246.46 81.71 243.53 84.64Q240.61 87.56 240.61 92.93L240.61 92.93L240.61 93.54Q240.61 98.98 243.57 101.91Q246.52 104.83 251.01 104.83ZM294.46 110.95L294.46 110.95Q289.43 110.95 285.52 108.88Q281.61 106.80 279.37 102.93Q277.12 99.05 277.12 93.75L277.12 93.75L277.12 92.73Q277.12 87.42 279.37 83.58Q281.61 79.74 285.52 77.63Q289.43 75.52 294.46 75.52L294.46 75.52Q299.50 75.52 303.44 77.63Q307.38 79.74 309.63 83.58Q311.87 87.42 311.87 92.73L311.87 92.73L311.87 93.75Q311.87 99.05 309.63 102.93Q307.38 106.80 303.44 108.88Q299.50 110.95 294.46 110.95ZM294.46 104.70L294.46 104.70Q299.09 104.70 301.98 101.74Q304.87 98.78 304.87 93.54L304.87 93.54L304.87 92.93Q304.87 87.70 301.98 84.74Q299.09 81.78 294.46 81.78L294.46 81.78Q289.84 81.78 286.98 84.74Q284.13 87.70 284.13 92.93L284.13 92.93L284.13 93.54Q284.13 98.78 287.02 101.74Q289.91 104.70 294.46 104.70ZM336.15 110.95L336.15 110.95Q331.32 110.95 327.41 108.91Q323.50 106.87 321.22 103.00Q318.94 99.12 318.94 93.68L318.94 93.68L318.94 92.80Q318.94 87.42 321.22 83.55Q323.50 79.67 327.41 77.60Q331.32 75.52 336.15 75.52L336.15 75.52Q340.98 75.52 344.41 77.29Q347.84 79.06 349.85 81.98Q351.86 84.91 352.54 88.44L352.54 88.44L345.74 89.87Q345.26 86.54 342.98 84.16Q340.70 81.78 336.28 81.78L336.28 81.78Q331.93 81.78 328.94 84.70Q325.95 87.63 325.95 92.93L325.95 92.93L325.95 93.54Q325.95 98.85 328.94 101.77Q331.93 104.70 336.28 104.70L336.28 104.70Q340.70 104.70 343.02 102.42Q345.33 100.14 345.94 96.60L345.94 96.60L352.74 98.17Q351.92 101.64 349.85 104.56Q347.78 107.48 344.38 109.22Q340.98 110.95 336.15 110.95ZM367.84 110L360.83 110L360.83 62.40L367.84 62.40L367.84 89.53L368.92 89.53L382.12 76.48L391.43 76.48L374.50 92.73L391.98 110L382.80 110L368.92 96.06L367.84 96.06L367.84 110Z" fill="#e8edf0"/>
<path d="M409.46 110L400.89 110L400.89 76.27L409.32 76.27L409.32 79.94L410.55 79.94Q411.43 78.24 413.47 76.99Q415.51 75.73 418.84 75.73L418.84 75.73Q422.45 75.73 424.62 77.12Q426.80 78.52 427.96 80.76L427.96 80.76L429.18 80.76Q430.34 78.58 432.44 77.16Q434.55 75.73 438.43 75.73L438.43 75.73Q441.56 75.73 444.11 77.05Q446.66 78.38 448.19 81.07Q449.72 83.75 449.72 87.83L449.72 87.83L449.72 110L441.15 110L441.15 88.44Q441.15 85.66 439.72 84.26Q438.29 82.87 435.71 82.87L435.71 82.87Q432.78 82.87 431.19 84.74Q429.59 86.61 429.59 90.08L429.59 90.08L429.59 110L421.02 110L421.02 88.44Q421.02 85.66 419.59 84.26Q418.16 82.87 415.58 82.87L415.58 82.87Q412.66 82.87 411.06 84.74Q409.46 86.61 409.46 90.08L409.46 90.08L409.46 110ZM474.33 110.95L474.33 110.95Q469.30 110.95 465.46 108.81Q461.62 106.67 459.47 102.76Q457.33 98.85 457.33 93.54L457.33 93.54L457.33 92.73Q457.33 87.42 459.44 83.51Q461.55 79.60 465.36 77.46Q469.16 75.32 474.20 75.32L474.20 75.32Q479.16 75.32 482.83 77.53Q486.50 79.74 488.54 83.65Q490.58 87.56 490.58 92.73L490.58 92.73L490.58 95.65L466.04 95.65Q466.17 99.12 468.62 101.30Q471.07 103.47 474.60 103.47L474.60 103.47Q478.21 103.47 479.91 101.91Q481.61 100.34 482.49 98.44L482.49 98.44L489.50 102.11Q488.54 103.88 486.74 105.95Q484.94 108.03 481.95 109.49Q478.96 110.95 474.33 110.95ZM466.10 89.26L466.10 89.26L481.88 89.26Q481.61 86.34 479.53 84.57Q477.46 82.80 474.13 82.80L474.13 82.80Q470.66 82.80 468.62 84.57Q466.58 86.34 466.10 89.26ZM512.21 110.95L512.21 110.95Q505.61 110.95 501.40 108.10Q497.18 105.24 496.30 99.94L496.30 99.94L504.18 97.90Q504.86 101.43 507.07 102.79Q509.28 104.15 512.21 104.15L512.21 104.15Q515.20 104.15 516.63 103.10Q518.06 102.04 518.06 100.48L518.06 100.48Q518.06 98.92 516.70 98.07Q515.34 97.22 512.34 96.67L512.34 96.67L510.44 96.33Q506.90 95.65 503.98 94.46Q501.06 93.27 499.29 91.16Q497.52 89.06 497.52 85.72L497.52 85.72Q497.52 80.69 501.19 78.01Q504.86 75.32 510.85 75.32L510.85 75.32Q516.49 75.32 520.23 77.84Q523.97 80.35 525.13 84.43L525.13 84.43L517.17 86.88Q516.63 84.30 514.96 83.21Q513.30 82.12 510.85 82.12L510.85 82.12Q508.40 82.12 507.11 82.97Q505.82 83.82 505.82 85.32L505.82 85.32Q505.82 86.95 507.18 87.73Q508.54 88.51 510.85 88.92L510.85 88.92L512.75 89.26Q516.56 89.94 519.65 91.06Q522.75 92.18 524.55 94.26Q526.35 96.33 526.35 99.87L526.35 99.87Q526.35 105.17 522.51 108.06Q518.67 110.95 512.21 110.95ZM542.40 110L533.83 110L533.83 62.40L542.40 62.40L542.40 80.42L543.62 80.42Q544.44 78.79 546.65 77.26Q548.86 75.73 553.35 75.73L553.35 75.73Q557.29 75.73 560.25 77.53Q563.21 79.33 564.84 82.49Q566.47 85.66 566.47 89.87L566.47 89.87L566.47 110L557.90 110L557.90 90.55Q557.90 86.74 556.03 84.84Q554.16 82.94 550.70 82.94L550.70 82.94Q546.75 82.94 544.58 85.55Q542.40 88.17 542.40 92.86L542.40 92.86L542.40 110Z" fill="#09c0dd"/>
</svg>