<?xml version="1.0" encoding="UTF-8"?>
<svg xmlns="http://www.w3.org/2000/svg" viewBox="0 0 880 260" font-family="system-ui,-apple-system,Segoe UI,Roboto,sans-serif">
  <rect width="880" height="260" rx="16" fill="#020617"/>

  <!-- Title -->
  <text x="32" y="44" font-size="18" font-weight="700" fill="#e8edf0">Platform support</text>
  <text x="32" y="66" font-size="12" fill="#697882">v1: Linux-native server + agent · cross-platform CLI</text>

  <!-- Header row -->
  <g font-size="12" font-weight="600" fill="#94a3b8">
    <text x="335" y="106" text-anchor="middle">Linux</text>
    <text x="525" y="106" text-anchor="middle">macOS</text>
    <text x="715" y="106" text-anchor="middle">Windows</text>
  </g>
  <line x1="32" y1="118" x2="848" y2="118" stroke="#1e293b" stroke-width="1"/>

  <!-- Pill colours reused via <defs> wouldn't save much; inline keeps
       the file single-pass-readable. -->

  <!-- Row: Server -->
  <text x="32" y="146" font-size="13" font-weight="600" fill="#e8edf0">Server</text>
  <text x="32" y="162" font-size="11" fill="#697882">dockmesh</text>

  <g transform="translate(260, 138)">
    <rect width="150" height="26" rx="6" fill="#09c0dd" fill-opacity="0.14" stroke="#09c0dd" stroke-opacity="0.45"/>
    <path d="M 14 13 L 19 18 L 29 8" stroke="#09c0dd" stroke-width="2.2" fill="none" stroke-linecap="round" stroke-linejoin="round"/>
    <text x="40" y="17" font-size="12" font-weight="500" fill="#b8f0f9">amd64 · arm64</text>
  </g>

  <g transform="translate(450, 138)">
    <rect width="150" height="26" rx="6" fill="#64748b" fill-opacity="0.1" stroke="#475569" stroke-opacity="0.4"/>
    <text x="75" y="17" text-anchor="middle" font-size="11" font-weight="500" fill="#94a3b8">roadmap</text>
  </g>

  <g transform="translate(640, 138)">
    <rect width="150" height="26" rx="6" fill="#64748b" fill-opacity="0.1" stroke="#475569" stroke-opacity="0.4"/>
    <text x="75" y="17" text-anchor="middle" font-size="11" font-weight="500" fill="#94a3b8">roadmap</text>
  </g>

  <!-- Row: Agent -->
  <text x="32" y="190" font-size="13" font-weight="600" fill="#e8edf0">Agent</text>
  <text x="32" y="206" font-size="11" fill="#697882">dockmesh-agent</text>

  <g transform="translate(260, 182)">
    <rect width="150" height="26" rx="6" fill="#09c0dd" fill-opacity="0.14" stroke="#09c0dd" stroke-opacity="0.45"/>
    <path d="M 14 13 L 19 18 L 29 8" stroke="#09c0dd" stroke-width="2.2" fill="none" stroke-linecap="round" stroke-linejoin="round"/>
    <text x="40" y="17" font-size="12" font-weight="500" fill="#b8f0f9">amd64 · arm64</text>
  </g>

  <g transform="translate(450, 182)">
    <rect width="150" height="26" rx="6" fill="#64748b" fill-opacity="0.1" stroke="#475569" stroke-opacity="0.4"/>
    <text x="75" y="17" text-anchor="middle" font-size="11" font-weight="500" fill="#94a3b8">roadmap</text>
  </g>

  <g transform="translate(640, 182)">
    <rect width="150" height="26" rx="6" fill="#64748b" fill-opacity="0.1" stroke="#475569" stroke-opacity="0.4"/>
    <text x="75" y="17" text-anchor="middle" font-size="11" font-weight="500" fill="#94a3b8">roadmap</text>
  </g>

  <!-- Row: CLI -->
  <text x="32" y="234" font-size="13" font-weight="600" fill="#e8edf0">CLI</text>
  <text x="32" y="250" font-size="11" fill="#697882">dmctl</text>

  <g transform="translate(260, 226)">
    <rect width="150" height="26" rx="6" fill="#09c0dd" fill-opacity="0.14" stroke="#09c0dd" stroke-opacity="0.45"/>
    <path d="M 14 13 L 19 18 L 29 8" stroke="#09c0dd" stroke-width="2.2" fill="none" stroke-linecap="round" stroke-linejoin="round"/>
    <text x="40" y="17" font-size="12" font-weight="500" fill="#b8f0f9">amd64 · arm64</text>
  </g>

  <g transform="translate(450, 226)">
    <rect width="150" height="26" rx="6" fill="#09c0dd" fill-opacity="0.14" stroke="#09c0dd" stroke-opacity="0.45"/>
    <path d="M 14 13 L 19 18 L 29 8" stroke="#09c0dd" stroke-width="2.2" fill="none" stroke-linecap="round" stroke-linejoin="round"/>
    <text x="40" y="17" font-size="12" font-weight="500" fill="#b8f0f9">amd64 · arm64</text>
  </g>

  <g transform="translate(640, 226)">
    <rect width="150" height="26" rx="6" fill="#09c0dd" fill-opacity="0.14" stroke="#09c0dd" stroke-opacity="0.45"/>
    <path d="M 14 13 L 19 18 L 29 8" stroke="#09c0dd" stroke-width="2.2" fill="none" stroke-linecap="round" stroke-linejoin="round"/>
    <text x="40" y="17" font-size="12" font-weight="500" fill="#b8f0f9">amd64</text>
  </g>
</svg>
